<svg xmlns="http://www.w3.org/2000/svg" width="22.443" height="21.447" viewBox="0 0 22.443 21.447">
  <g id="Group_14" data-name="Group 14" transform="translate(0)">
    <path id="Path_15" data-name="Path 15" d="M49.511,37.117v8.3H44.7V37.673c0-1.944-.695-3.272-2.437-3.272A2.632,2.632,0,0,0,39.8,36.161a3.293,3.293,0,0,0-.159,1.173v8.082H34.824s.065-13.113,0-14.471h4.812V33c-.01.016-.023.032-.032.047h.032V33a4.777,4.777,0,0,1,4.336-2.39c3.166,0,5.539,2.068,5.539,6.512ZM29.791,23.969a2.507,2.507,0,1,0-.063,5h.031a2.508,2.508,0,1,0,.032-5ZM27.354,45.416h4.81V30.944h-4.81Z" transform="translate(-27.068 -23.969)" fill="#f1f2f2"/>
  </g>
</svg>
