<svg xmlns="http://www.w3.org/2000/svg" width="21.809" height="29.74" viewBox="0 0 21.809 29.74">
  <g id="location" transform="translate(-64)">
    <g id="Group_931" data-name="Group 931" transform="translate(64)">
      <g id="Group_930" data-name="Group 930" transform="translate(0)">
        <path id="Path_1266" data-name="Path 1266" d="M74.9,0A10.9,10.9,0,0,0,64,10.9c0,5.86,10.093,18.136,10.523,18.655a.5.5,0,0,0,.764,0c.43-.519,10.523-12.8,10.523-18.655A10.9,10.9,0,0,0,74.9,0Zm0,28.457C73.04,26.129,64.991,15.8,64.991,10.9a9.913,9.913,0,0,1,19.827,0C84.818,15.8,76.77,26.128,74.9,28.457Z" transform="translate(-64 0)" fill="#a1a2ab"/>
        <path id="Path_1267" data-name="Path 1267" d="M141.689,69.063l-6.444-4.957a.5.5,0,0,0-.6,0L128.2,69.063a.5.5,0,0,0,.3.888h1.487V75.4a.5.5,0,0,0,.5.5H139.4a.5.5,0,0,0,.5-.5V69.951h1.487a.5.5,0,0,0,.3-.888Zm-5.755,5.845h-1.983V71.934h1.983Zm3.47-5.948a.5.5,0,0,0-.5.5v5.452h-1.983v-3.47a.5.5,0,0,0-.5-.5h-2.974a.5.5,0,0,0-.5.5v3.47h-1.983V69.456a.5.5,0,0,0-.5-.5h-.525l4.986-3.835,4.986,3.835Z" transform="translate(-124.038 -60.038)" fill="#a1a2ab"/>
      </g>
    </g>
  </g>
</svg>
