<svg xmlns="http://www.w3.org/2000/svg" width="22" height="22" viewBox="0 0 22 22">
  <g id="phone" transform="translate(0 -0.487)">
    <path id="Path_9" data-name="Path 9" d="M16.542,18.056a1.828,1.828,0,0,0-1.4-.246,1.251,1.251,0,0,0-.749.588,12.768,12.768,0,0,1-.973,1.091,1.611,1.611,0,0,1-2.363-.239L6.749,14.88a1.662,1.662,0,0,1-.237-2.394A12.569,12.569,0,0,1,7.589,11.5a1.264,1.264,0,0,0,.58-.76,1.9,1.9,0,0,0-.245-1.42c-.065-.113-1.61-2.767-3.035-3.53a1.823,1.823,0,0,0-2.175.332l-.952.965C-1.016,9.9-.5,13.4,3.249,17.2l5.519,5.6a10.711,10.711,0,0,0,4.9,3.151,5.3,5.3,0,0,0,1.21.145,5.36,5.36,0,0,0,3.864-1.789l.952-.965a1.887,1.887,0,0,0,.327-2.206C19.274,19.692,16.657,18.125,16.542,18.056ZM19.17,22.8l-.952.965c-2.465,2.5-5.466,1.993-8.918-1.507l-5.519-5.6c-3.452-3.5-3.952-6.542-1.487-9.042l.952-.965a1.084,1.084,0,0,1,1.293-.2C5.775,7.123,7.262,9.677,7.275,9.7a1.184,1.184,0,0,1,.172.836.51.51,0,0,1-.257.318l-.056.04a11.167,11.167,0,0,0-1.242,1.165,3.168,3.168,0,0,0-.462,1.014,5.444,5.444,0,0,1-.553-1.858.376.376,0,1,0-.747.079,7.291,7.291,0,0,0,2.387,4.44.348.348,0,0,0,.03.018l3.983,4.039c.017.017.034.032.051.048a.356.356,0,0,0,.039.059,7.793,7.793,0,0,0,4.354,2.011l.039,0a.381.381,0,0,0,.038-.759,6.543,6.543,0,0,1-2.083-.593,3.2,3.2,0,0,0,.876-.437,11.192,11.192,0,0,0,1.149-1.259l.039-.057a.509.509,0,0,1,.314-.26,1.144,1.144,0,0,1,.82.171,10.47,10.47,0,0,1,3.2,2.777A1.12,1.12,0,0,1,19.17,22.8Z" transform="translate(0 -3.609)" fill="#a1a2ab"/>
    <path id="Path_10" data-name="Path 10" d="M26.652.487a.29.29,0,1,0,0,.579A8.884,8.884,0,0,1,35.525,9.94a.29.29,0,0,0,.579,0A9.463,9.463,0,0,0,26.652.487Z" transform="translate(-14.104)" fill="#a1a2ab"/>
    <path id="Path_11" data-name="Path 11" d="M26.652,8.1a6.845,6.845,0,0,1,6.837,6.837.29.29,0,1,0,.579,0,7.425,7.425,0,0,0-7.416-7.416.29.29,0,1,0,0,.579Z" transform="translate(-14.104 -4.994)" fill="#a1a2ab"/>
    <path id="Path_12" data-name="Path 12" d="M26.652,15.126a4.806,4.806,0,0,1,4.8,4.8.29.29,0,0,0,.579,0,5.386,5.386,0,0,0-5.38-5.38.29.29,0,1,0,0,.579Z" transform="translate(-15.712 -8.24)" fill="#a1a2ab"/>
  </g>
</svg>
