<svg xmlns="http://www.w3.org/2000/svg" width="24" height="19.505" viewBox="0 0 24 19.505">
  <g id="Group_13" data-name="Group 13" transform="translate(0)">
    <path id="Path_13" data-name="Path 13" d="M49.1,36.337a9.825,9.825,0,0,1-2.828.774,4.938,4.938,0,0,0,2.166-2.724,9.857,9.857,0,0,1-3.127,1.195,4.928,4.928,0,0,0-8.391,4.492,13.978,13.978,0,0,1-10.15-5.146A4.93,4.93,0,0,0,28.3,41.5a4.889,4.889,0,0,1-2.23-.617c0,.021,0,.042,0,.062a4.927,4.927,0,0,0,3.95,4.828,4.943,4.943,0,0,1-2.224.085,4.929,4.929,0,0,0,4.6,3.42,9.94,9.94,0,0,1-7.29,2.039,14,14,0,0,0,21.558-11.8c0-.213,0-.426-.014-.637A9.986,9.986,0,0,0,49.1,36.337Z" transform="translate(-25.103 -34.028)" fill="#f1f2f2"/>
  </g>
</svg>
