<svg xmlns="http://www.w3.org/2000/svg" width="21.801" height="20.369" viewBox="0 0 21.801 20.369"><defs><style>.a{fill:#a1a2ab;}</style></defs><g transform="translate(0 -16.814)"><g transform="translate(0 16.814)"><g transform="translate(0 0)"><path class="a" d="M21.784,24.512a.322.322,0,0,0-.02-.111.556.556,0,0,0-.219-.31l-3.121-2.169V19.6a.558.558,0,0,0-.558-.558h-3.59L11.22,16.914a.558.558,0,0,0-.636,0L7.51,19.038H3.935a.558.558,0,0,0-.558.558v2.3L.241,24.062a.557.557,0,0,0-.24.451s0,.006,0,.01l.017,12.1a.558.558,0,0,0,.558.557h0l20.667-.028A.558.558,0,0,0,21.8,36.6Zm-3.36-1.23,1.784,1.24-1.784,1.24ZM10.9,18.052l1.418.986H9.474Zm-6.407,2.1H17.307v6.384L13,29.529l-1.754-1.361-.008-.005a.558.558,0,0,0-.677.005L8.8,29.539,4.494,26.563Zm-1.117,3.1v2.539L1.54,24.521ZM1.118,25.588l6.756,4.669-6.742,5.23ZM2.209,36.064l8.7-6.748,8.669,6.724Zm11.721-5.818,6.739-4.685.014,9.923Z" transform="translate(0 -16.814)"/></g></g><g transform="translate(6.562 22.388)"><path class="a" d="M162.24,147.713H154.68a.558.558,0,1,0,0,1.117h7.559a.558.558,0,0,0,0-1.117Z" transform="translate(-154.122 -147.713)"/></g><g transform="translate(6.562 25.291)"><path class="a" d="M162.24,215.895H154.68a.558.558,0,1,0,0,1.117h7.559a.558.558,0,0,0,0-1.117Z" transform="translate(-154.122 -215.895)"/></g></g></svg>