<svg width="107" height="107" viewBox="0 0 107 107" fill="none" xmlns="http://www.w3.org/2000/svg">
<path opacity="0.2" d="M53.4 0C63.9615 0 74.2859 3.13186 83.0675 8.99952C91.849 14.8672 98.6934 23.2071 102.735 32.9647C106.777 42.7223 107.834 53.4592 105.774 63.8178C103.713 74.1764 98.6276 83.6914 91.1595 91.1595C83.6914 98.6276 74.1764 103.713 63.8178 105.774C53.4592 107.834 42.7223 106.777 32.9647 102.735C23.2071 98.6934 14.8672 91.849 8.99952 83.0675C3.13186 74.2859 0 63.9615 0 53.4C0 39.2374 5.62606 25.6549 15.6405 15.6405C25.6549 5.62606 39.2374 0 53.4 0V0Z" fill="#F64A06"/>
<path opacity="0.6" d="M91.401 53.401C91.401 32.4142 74.3878 15.401 53.401 15.401C32.4142 15.401 15.401 32.4142 15.401 53.401C15.401 74.3878 32.4142 91.401 53.401 91.401C74.3878 91.401 91.401 74.3878 91.401 53.401Z" fill="#F64A06"/>
<path d="M76.401 53.401C76.401 40.6985 66.1035 30.401 53.401 30.401C40.6985 30.401 30.401 40.6985 30.401 53.401C30.401 66.1035 40.6985 76.401 53.401 76.401C66.1035 76.401 76.401 66.1035 76.401 53.401Z" fill="#F64A06"/>
<path d="M63.411 51.67C63.7145 51.8457 63.9666 52.0981 64.1418 52.402C64.317 52.7058 64.4092 53.0503 64.4092 53.401C64.4092 53.7518 64.317 54.0963 64.1418 54.4001C63.9666 54.704 63.7145 54.9564 63.411 55.132L50.401 62.663C50.097 62.8385 49.7522 62.9309 49.4013 62.931C49.0503 62.931 48.7055 62.8387 48.4015 62.6633C48.0974 62.4879 47.845 62.2356 47.6693 61.9317C47.4937 61.6278 47.4012 61.283 47.401 60.932V45.87C47.4012 45.5191 47.4937 45.1743 47.6693 44.8704C47.845 44.5665 48.0974 44.3142 48.4015 44.1388C48.7055 43.9634 49.0503 43.871 49.4013 43.8711C49.7522 43.8711 50.097 43.9636 50.401 44.139L63.411 51.67Z" fill="white"/>
</svg>
